<svg version="1" xmlns="http://www.w3.org/2000/svg" width="1213.333" height="1213.333" viewBox="0 0 910.000000 910.000000"><path d="M598.7 113.7c1.8.2 5 .2 7 0 2.1-.2.7-.4-3.2-.4-3.8 0-5.5.2-3.8.4zM667.3 113.7c1.5.2 3.9.2 5.5 0 1.5-.2.2-.4-2.8-.4s-4.3.2-2.7.4zM577.8 114.7c1.2.2 3.2.2 4.5 0 1.2-.2.2-.4-2.3-.4s-3.5.2-2.2.4zM687.3 114.7c.9.2 2.5.2 3.5 0 .9-.3.1-.5-1.8-.5-1.9 0-2.7.2-1.7.5zM562.8 115.7c1.2.2 3 .2 4 0 .9-.3-.1-.5-2.3-.4-2.2 0-3 .2-1.7.4zM700.3 115.7c.9.2 2.3.2 3 0 .6-.3-.1-.5-1.8-.5-1.6 0-2.2.2-1.2.5zM549.3 116.7c.9.2 2.5.2 3.5 0 .9-.3.1-.5-1.8-.5-1.9 0-2.7.2-1.7.5zM709.8 116.7c.6.2 1.8.2 2.5 0 .6-.3.1-.5-1.3-.5-1.4 0-1.9.2-1.2.5zM538.3 117.7c.9.2 2.3.2 3 0 .6-.3-.1-.5-1.8-.5-1.6 0-2.2.2-1.2.5zM717.8 117.7c.6.2 1.8.2 2.5 0 .6-.3.1-.5-1.3-.5-1.4 0-1.9.2-1.2.5zM528.3 118.7c.9.2 2.3.2 3 0 .6-.3-.1-.5-1.8-.5-1.6 0-2.2.2-1.2.5zM725.8 118.7c.7.3 1.6.2 1.9-.1.4-.3-.2-.6-1.3-.5-1.1 0-1.4.3-.6.6zM517.3 119.7c.9.2 2.3.2 3 0 .6-.3-.1-.5-1.8-.5-1.6 0-2.2.2-1.2.5zM508.8 120.7c.6.2 1.8.2 2.5 0 .6-.3.1-.5-1.3-.5-1.4 0-1.9.2-1.2.5zM737.8 120.7c.7.3 1.6.2 1.9-.1.4-.3-.2-.6-1.3-.5-1.1 0-1.4.3-.6.6zM499.8 121.7c.6.2 1.8.2 2.5 0 .6-.3.1-.5-1.3-.5-1.4 0-1.9.2-1.2.5zM491.8 122.7c.7.3 1.6.2 1.9-.1.4-.3-.2-.6-1.3-.5-1.1 0-1.4.3-.6.6zM483.8 123.7c.6.2 1.8.2 2.5 0 .6-.3.1-.5-1.3-.5-1.4 0-1.9.2-1.2.5zM752.8 123.7c.7.3 1.6.2 1.9-.1.4-.3-.2-.6-1.3-.5-1.1 0-1.4.3-.6.6zM476.8 124.7c.7.3 1.6.2 1.9-.1.4-.3-.2-.6-1.3-.5-1.1 0-1.4.3-.6.6zM468.8 125.7c.7.3 1.6.2 1.9-.1.4-.3-.2-.6-1.3-.5-1.1 0-1.4.3-.6.6zM461.8 126.7c.6.2 1.8.2 2.5 0 .6-.3.1-.5-1.3-.5-1.4 0-1.9.2-1.2.5zM454.8 127.7c.7.3 1.6.2 1.9-.1.4-.3-.2-.6-1.3-.5-1.1 0-1.4.3-.6.6zM447.8 128.7c.7.3 1.6.2 1.9-.1.4-.3-.2-.6-1.3-.5-1.1 0-1.4.3-.6.6zM441.8 129.7c.7.3 1.6.2 1.9-.1.4-.3-.2-.6-1.3-.5-1.1 0-1.4.3-.6.6zM435.8 130.7c.7.3 1.6.2 1.9-.1.4-.3-.2-.6-1.3-.5-1.1 0-1.4.3-.6.6zM429.8 131.7c.7.3 1.6.2 1.9-.1.4-.3-.2-.6-1.3-.5-1.1 0-1.4.3-.6.6zM423.8 132.7c.7.3 1.6.2 1.9-.1.4-.3-.2-.6-1.3-.5-1.1 0-1.4.3-.6.6zM417.8 133.7c.7.3 1.6.2 1.9-.1.4-.3-.2-.6-1.3-.5-1.1 0-1.4.3-.6.6zM411.8 134.7c.7.3 1.6.2 1.9-.1.4-.3-.2-.6-1.3-.5-1.1 0-1.4.3-.6.6zM395.8 137.7c.7.3 1.6.2 1.9-.1.4-.3-.2-.6-1.3-.5-1.1 0-1.4.3-.6.6zM360.8 144.7c.7.3 1.6.2 1.9-.1.4-.3-.2-.6-1.3-.5-1.1 0-1.4.3-.6.6zM589.5 151.1c-21.5 1-42.9 2.6-67 5-21.4 2.1-53.8 5.9-54.3 6.4-.7.6-3.4 180.6-2.8 181.2.6.6 278.1-2.9 354.9-4.4l31.8-.6-.6-6.1c-3.6-37.2-8-60.2-16.5-85.6-4.5-13.7-14.4-34.8-21.2-45-6-9.1-17.9-21.2-25.4-26-21-13.2-60.2-22-111.8-25-20-1.1-62.9-1.1-87.1.1zM819 152.4c0 .2.8 1 1.8 1.7 1.5 1.3 1.6 1.2.3-.4s-2.1-2.1-2.1-1.3z"/><path d="M419.5 169.1c-13.7 2.1-34.9 5.6-47 7.7l-22 3.8-.6 19.9c-.4 11-.7 38.9-.8 62.1 0 23.1-.4 55.6-.8 72.1l-.6 30.1-16.6.6c-9.1.3-60.4.9-114 1.2l-97.3.7.6-8.9.5-8.9-1.4 7c-5.5 28.4-4.1 84.3 2.9 114l1.4 6-.5-6.6-.5-6.6 36.8-.6c20.3-.4 70.8-.7 112.2-.7H347l-.1 30.2c0 16.7-.4 62.7-.8 102.3-.5 39.6-.5 72.3-.2 72.6.6.6 93.8-13.5 94.6-14.3.2-.2 1.2-43.3 2.1-95.8.9-52.5 1.7-95.6 1.7-95.7.1 0 88.6-.4 196.7-.8s198.3-1 200.5-1.4l4-.6 2.7-16c1.5-8.8 3.2-21 3.9-27 1.4-12.5 1.7-42.5.5-49.9l-.8-4.9-66.1.6c-233.8 2.2-338.8 3-339.3 2.4-.6-.6.8-108.1 2.3-171l.6-27.7-2.4.1c-1.3 0-13.6 1.8-27.4 4zM833 166.4c0 .2.8 1 1.8 1.7 1.5 1.3 1.6 1.2.3-.4s-2.1-2.1-2.1-1.3z"/><path d="M302.5 193.5c-39.9 10.2-71.7 20.7-92 30.5-44.4 21.4-73.9 59.7-87 112.8-1.5 6.2-2.5 11.5-2.2 11.8.6.7 201.5-2 202-2.7.8-.8 1.7-157.9 1-157.9-.5.1-10.2 2.5-21.8 5.5zM850 190c.6 1.1 1.3 2 1.6 2 .2 0 0-.9-.6-2s-1.3-2-1.6-2c-.2 0 0 .9.6 2zM859 207.2c14.3 29.8 24.2 69 28.6 113.8 2 19.7 2.3 66.2.5 85-8.6 94.1-36.2 167.2-80.8 214-29.4 30.9-68.9 45.5-141.3 52-21.9 1.9-52.8 3-107 3.5-133.4 1.4-186.4 5.4-244.5 18.6-32.3 7.3-50.9 13.8-93 32.5-53.2 23.5-85.9 36.4-121.7 48.1-18.7 6.1-23.8 8.3-19.3 8.3.8 0 1.5-.5 1.5-1.1 0-.7 1.2-.9 3.4-.5 2 .4 3.6.2 3.8-.4.1-.5 2.3-1.2 4.8-1.4 11.8-1.2 72.5-24.7 132.8-51.5 30.6-13.6 45.7-19.3 66-25 41-11.6 87.1-18.4 148.7-22.1 9.4-.5 49-1.4 88-2 104.2-1.5 137.1-3 171-7.9 26.5-3.9 51.5-10.8 69.2-19.1 52.3-24.5 93.9-92.5 112.2-183.7 17.7-87.6 11.8-178.7-15.8-247.5-3.3-8.3-11.8-25.8-12.6-25.8-.2 0 2.3 5.5 5.5 12.2zM161.9 217.7c-1.3 1.6-1.2 1.7.4.4.9-.7 1.7-1.5 1.7-1.7 0-.8-.8-.3-2.1 1.3zM153.4 225.2l-2.9 3.3 3.3-2.9c1.7-1.7 3.2-3.1 3.2-3.3 0-.8-.8-.1-3.6 2.9zM141.9 236.7l-3.4 3.8 3.8-3.4c2-1.9 3.7-3.6 3.7-3.8 0-.8-.8 0-4.1 3.4zM134.9 244.7c-1.3 1.6-1.2 1.7.4.4.9-.7 1.7-1.5 1.7-1.7 0-.8-.8-.3-2.1 1.3zM89.1 349.6c0 1.1.3 1.4.6.6.3-.7.2-1.6-.1-1.9-.3-.4-.6.2-.5 1.3zM88.1 355.6c0 1.1.3 1.4.6.6.3-.7.2-1.6-.1-1.9-.3-.4-.6.2-.5 1.3zM87.1 362.6c0 1.1.3 1.4.6.6.3-.7.2-1.6-.1-1.9-.3-.4-.6.2-.5 1.3zM86.2 370.5c0 1.6.2 2.2.5 1.2.2-.9.2-2.3 0-3-.3-.6-.5.1-.5 1.8zM85.2 382c0 1.9.2 2.7.5 1.7.2-.9.2-2.5 0-3.5-.3-.9-.5-.1-.5 1.8zM84.3 405.5c0 3.3.2 4.5.4 2.7.2-1.8.2-4.5 0-6s-.4 0-.4 3.3zM85.3 429.5c0 2.2.2 3 .4 1.7.2-1.2.2-3 0-4-.3-.9-.5.1-.4 2.3zM86.2 441.5c0 1.6.2 2.2.5 1.2.2-.9.2-2.3 0-3-.3-.6-.5.1-.5 1.8zM87.2 450c0 1.4.2 1.9.5 1.2.2-.6.2-1.8 0-2.5-.3-.6-.5-.1-.5 1.3zM88.1 457.6c0 1.1.3 1.4.6.6.3-.7.2-1.6-.1-1.9-.3-.4-.6.2-.5 1.3zM89.1 464.6c0 1.1.3 1.4.6.6.3-.7.2-1.6-.1-1.9-.3-.4-.6.2-.5 1.3z"/><path d="M658.5 482.7c-85.8.7-165 1.6-176.1 1.9l-20.1.6-.6 47.2c-.4 25.9-1 63.2-1.4 82.9l-.6 35.8 2.4-.5c4-.9 47.1-3.5 84.9-5.1 77.9-3.3 119.2-7.2 154.8-14.6 25.5-5.3 47.8-13.1 60.2-21.1 25.6-16.4 51.5-54.6 66.7-98.3 2.8-8.1 7.7-23.7 8.7-27.8l.6-2.7-11.7.2c-6.5 0-82 .7-167.8 1.5zM199.5 487.1c-34.6.3-65.3.7-68.1.8l-5.1.1 1.8 6.7c8.3 29.9 19.7 54.7 33 71.9 9.4 12.2 10.4 14.4 10.2 24.4-.1 8.1-.4 9.3-7.1 25.6-29 70.7-53.8 106.2-100.2 143.3-12 9.6-15.8 12.1-12.9 8.3 1.3-1.5 1.2-1.6-.3-.3-1 .7-1.5 1.7-1.3 2.2.5.7-3.6 3.6-4.3 3-.2-.2-.7.1-1 .5-.4.4-.1.4.5 0 2.4-1.4 1.3 0-1.8 2.3-1.8 1.3-2.9 1.7-2.5 1 .4-.8 0-.5-.9.6s-2 1.9-2.5 1.8c-.5-.2-1.4.6-2 1.7-.6 1.1-1.5 1.8-2.1 1.5-.5-.4-1.2.1-1.5.9-.3.9-1.2 1.6-1.9 1.6-.6 0-2.4 1.1-3.8 2.4-1.4 1.3-2.8 2.1-3.1 1.9-.3-.3-.8.2-1.2 1.1-.3.9-1.2 1.6-2 1.6s-1.4.5-1.4 1.1c0 .5-.4.7-1 .4-.5-.3-1-.1-1 .4 0 1.4 3.4 1.4 5.8.1.9-.5 6.4-1.9 12.2-3.1 13.5-2.7 44-11.5 60-17.2 35.6-12.7 64-25.4 114.5-51.4 32.3-16.6 65.2-30.4 99.1-41.4l13.1-4.2.6-69c.4-38 .7-80.9.7-95.4V486l-29.7.2c-16.4.1-58.1.5-92.8.9z"/><path d="M134 582.4c0 .2.8 1 1.8 1.7 1.5 1.3 1.6 1.2.3-.4s-2.1-2.1-2.1-1.3zM138 587.3c0 .2 1.5 1.6 3.3 3.3l3.2 2.9-2.9-3.3c-2.8-3-3.6-3.7-3.6-2.9zM145.2 616.5c0 1.6.2 2.2.5 1.2.2-.9.2-2.3 0-3-.3-.6-.5.1-.5 1.8zM144.2 625c0 1.4.2 1.9.5 1.2.2-.6.2-1.8 0-2.5-.3-.6-.5-.1-.5 1.3zM93.4 726.2l-1.9 2.3 2.3-1.9c2.1-1.8 2.7-2.6 1.9-2.6-.2 0-1.2 1-2.3 2.2zM84.5 736.2l-4 4.3 4.3-4c3.9-3.6 4.7-4.5 3.9-4.5-.2 0-2.1 1.9-4.2 4.2zM67.5 753.2l-4 4.3 4.3-4c3.9-3.6 4.7-4.5 3.9-4.5-.2 0-2.1 1.9-4.2 4.2zM56.4 763.2l-1.9 2.3 2.3-1.9c2.1-1.8 2.7-2.6 1.9-2.6-.2 0-1.2 1-2.3 2.2zM73.5 783l-2 .9h2c1.1 0 2.7-.4 3.5-.9 1.3-.9 1.3-1 0-.9-.8 0-2.4.4-3.5.9zM68.8 784.7c.7.3 1.6.2 1.9-.1.4-.3-.2-.6-1.3-.5-1.1 0-1.4.3-.6.6zM61.8 786.7c.7.3 1.6.2 1.9-.1.4-.3-.2-.6-1.3-.5-1.1 0-1.4.3-.6.6zM57.8 787.7c.7.3 1.6.2 1.9-.1.4-.3-.2-.6-1.3-.5-1.1 0-1.4.3-.6.6zM53.8 788.7c.7.3 1.6.2 1.9-.1.4-.3-.2-.6-1.3-.5-1.1 0-1.4.3-.6.6zM48.8 789.7c.6.2 1.8.2 2.5 0 .6-.3.1-.5-1.3-.5-1.4 0-1.9.2-1.2.5zM34.1 792.2c-10.5 1.9-17.6 4.8-12 4.8 4.5 0 13.3-2 14-3.2.4-.6 1.4-.8 2.4-.5 1.1.5 1.4.3.9-.5-.5-.7-.2-.9.7-.6.8.3 2.8-.1 4.4-.8 3.9-1.7 2.2-1.6-10.4.8z"/></svg>